. 
  
http://www.torrenting.com/        :     Greatest Movie Tracker on The Net!!!
 
http://www.Torrenting.com          :     Once & For all ;)


               www . Torrenting . Com 

(((((((((((((= Enjoy No RAR releases =))))))))))))))))))))


...................................NFO:....................................

.[img]http://img808.imageshack.us/img808/4554/harrypotterandthedeathlj.jpg[/img]

[color=blue][size=5][b]Harry Potter And The Deathly Hallows Part 1 BDRip HQ Hive-CM8[/b][/size][/color]



[b]Thx Hive

CM8 Doing It Right The First Time :D

Why download a touched up rip of a rip BRrip
Get the real deal BDRip


Enjoy

Source: My Tweaked Bluray

Encode: like my Bluray encode adjusted brightness when needed, colours untouched. finally a version thats not dark, grainy and lifeless.

pic comparison between the 2 available encodes and my version are here:
[url]http://screenshotcomparison.com/comparison/40715[/url]

Video: 720x304 @bitrate 1900 2pass
Audio: English DTS to AC3 5.1 @448
Sample: yes included
Subs: yes english in srt /subs[/b]


[url]http://www.imdb.com/title/tt0926084/[/url]


General
Complete name                    : Harry.Potter.a.t.Deathly.Hallows.Part.1.BDRip.Special.HQ.Hive-CM8.avi
Format                           : AVI
Format/Info                      : Audio Video Interleave
Format profile                   : OpenDML
File size                        : 2.40 GiB
Duration                         : 2h 26mn
Overall bit rate                 : 2 355 Kbps
Writing application              : AVI-Mux GUI 1.17.7, Aug  8 2006  20:59:17

Video
ID                               : 0
Format                           : MPEG-4 Visual
Format profile                   : Advanced Simple@L5
Format settings, BVOP            : Yes
Format settings, QPel            : Yes
Format settings, GMC             : No warppoints
Format settings, Matrix          : Default (H.263)
Muxing mode                      : Packed bitstream
Codec ID                         : XVID
Codec ID/Hint                    : XviD
Duration                         : 2h 26mn
Bit rate                         : 1 901 Kbps
Width                            : 720 pixels
Height                           : 304 pixels
Display aspect ratio             : 2.40:1
Frame rate                       : 23.976 fps
Color space                      : YUV
Chroma subsampling               : 4:2:0
Bit depth                        : 8 bits
Scan type                        : Progressive
Bits/(Pixel*Frame)               : 0.362
Stream size                      : 1.94 GiB (81%)
Writing library                  : XviD 1.2.1 (UTC 2008-12-04)

Audio
ID                               : 1
Format                           : AC-3
Format/Info                      : Audio Coding 3
Mode extension                   : CM (complete main)
Codec ID                         : 2000
Duration                         : 2h 26mn
Bit rate mode                    : Constant
Bit rate                         : 448 Kbps
Channel(s)                       : 6 channels
Channel positions                : Front: L C R, Side: L R, LFE
Sampling rate                    : 48.0 KHz
Bit depth                        : 16 bits
Stream size                      : 468 MiB (19%)
Alignment                        : Aligned on interleaves
Interleave, duration             : 64 ms (1.53 video frames)
Interleave, preload duration     : 192 ms


Bill Nighy... Rufus Scrimgeour
Emma Watson... Hermione Granger
Richard Griffiths... Vernon Dursley
Harry Melling... Dudley Dursley
Daniel Radcliffe... Harry Potter
Julie Walters... Molly Weasley
Bonnie Wright... Ginny Weasley
Rupert Grint... Ron Weasley
Ian Kelly... Hermione's Dad
Michelle Fairley... Hermione's Mum
Fiona Shaw... Petunia Dursley
Alan Rickman... Professor Severus Snape
Carolyn Pickles... Charity Burbage
Ralph Fiennes... Lord Voldemort
Helena Bonham Carter... Bellatrix Lestrange



Voldemort's power is growing stronger. He now has control over the Ministry
of Magic and Hogwarts. Harry, Ron, and Hermione decide to finish Dumbledore's 
work and find the rest of the Horcruxes to defeat the Dark Lord. But little hope 
remains for the Trio, and the rest of the Wizarding World, so everything they do must go as planned.


[img]http://img190.imageshack.us/img190/6587/31636525.png[/img]
[img]http://img842.imageshack.us/img842/2128/hahahd.png[/img]
[img]http://img101.imageshack.us/img101/5631/hahahaiy.png[/img]
[img]http://img51.imageshack.us/img51/6130/hahahahaih.png[/img]
[img]http://img638.imageshack.us/img638/4944/hahahahahaz.png[/img]
[img]http://img585.imageshack.us/img585/7919/hahahahahahab.png[/img]
[img]http://img190.imageshack.us/img190/2862/hahahahahahahaw.png[/img]
[img]http://img707.imageshack.us/img707/268/hahahahahahahaha.png[/img]
[img]http://img14.imageshack.us/img14/2978/hahahahahahahhaaha.png[/img]
[img]http://img228.imageshack.us/img228/6660/hahahahahahahhahaaha.png[/img]
[img]http://img864.imageshack.us/img864/6329/hahahahahahahhahahaaha.png[/img]
[img]http://img860.imageshack.us/img860/5679/hahahahahahahhahahahaah.png[/img]
[img]http://img8.imageshack.us/img8/792/hahahahahahahhahahahaha.png[/img]
[img]http://img39.imageshack.us/img39/792/hahahahahahahhahahahaha.png[/img]
[img]http://img839.imageshack.us/img839/792/hahahahahahahhahahahaha.png[/img]



ViSiON,LUSi,,MAGNET,CLASSiFiED,THC,T0XiCiNK,IMAGiNE,WBZ,FLAWL3SS,NOVA
Vik,Rapeseed,D2U,SAFC,goldadvance,MEMORY100,KaN1vE,Unevano,Pinnz,Wayne,Mr Hive
and all P2P groups 
Great Work Guys :D

CM8@hushmail.com